<svg width="24" height="22" viewBox="0 0 24 22" fill="none" xmlns="http://www.w3.org/2000/svg">
<path d="M22.75 7.20815H20.0796L16.0712 1.19023C15.9118 0.951182 15.6639 0.78527 15.3821 0.728994C15.1003 0.672717 14.8077 0.730686 14.5687 0.890147C14.3296 1.04961 14.1637 1.2975 14.1074 1.57929C14.0511 1.86108 14.1091 2.15368 14.2686 2.39273L17.4763 7.20815H6.357L9.568 2.39273C9.72746 2.15368 9.78542 1.86108 9.72915 1.57929C9.67287 1.2975 9.50696 1.04961 9.26791 0.890147C9.02886 0.730686 8.73626 0.672717 8.45447 0.728994C8.17268 0.78527 7.92479 0.951182 7.76533 1.19023L3.75375 7.20815H1.08333C0.796015 7.20815 0.520465 7.32228 0.317301 7.52545C0.114136 7.72861 0 8.00416 0 8.29148C0 8.5788 0.114136 8.85435 0.317301 9.05751C0.520465 9.26068 0.796015 9.37481 1.08333 9.37481H2.16667V18.0415C2.16667 18.9034 2.50908 19.7301 3.11857 20.3396C3.72806 20.9491 4.55471 21.2915 5.41666 21.2915H18.4167C19.2786 21.2915 20.1053 20.9491 20.7148 20.3396C21.3242 19.7301 21.6667 18.9034 21.6667 18.0415V9.37481H22.75C23.0373 9.37481 23.3129 9.26068 23.516 9.05751C23.7192 8.85435 23.8333 8.5788 23.8333 8.29148C23.8333 8.00416 23.7192 7.72861 23.516 7.52545C23.3129 7.32228 23.0373 7.20815 22.75 7.20815ZM19.5 18.0415C19.5 18.3288 19.3859 18.6043 19.1827 18.8075C18.9795 19.0107 18.704 19.1248 18.4167 19.1248H5.41666C5.12935 19.1248 4.8538 19.0107 4.65063 18.8075C4.44747 18.6043 4.33333 18.3288 4.33333 18.0415V9.37481H19.5V18.0415Z" fill="#4D4D4D"/>
<path d="M7.58333 17.4998C7.87065 17.4998 8.1462 17.3856 8.34936 17.1825C8.55253 16.9793 8.66666 16.7037 8.66666 16.4164V12.0831C8.66666 11.7958 8.55253 11.5202 8.34936 11.3171C8.1462 11.1139 7.87065 10.9998 7.58333 10.9998C7.29601 10.9998 7.02046 11.1139 6.8173 11.3171C6.61414 11.5202 6.5 11.7958 6.5 12.0831V16.4164C6.5 16.7037 6.61414 16.9793 6.8173 17.1825C7.02046 17.3856 7.29601 17.4998 7.58333 17.4998Z" fill="#4D4D4D"/>
<path d="M11.9166 17.4998C12.2039 17.4998 12.4795 17.3856 12.6826 17.1825C12.8858 16.9793 12.9999 16.7037 12.9999 16.4164V12.0831C12.9999 11.7958 12.8858 11.5202 12.6826 11.3171C12.4795 11.1139 12.2039 10.9998 11.9166 10.9998C11.6293 10.9998 11.3537 11.1139 11.1506 11.3171C10.9474 11.5202 10.8333 11.7958 10.8333 12.0831V16.4164C10.8333 16.7037 10.9474 16.9793 11.1506 17.1825C11.3537 17.3856 11.6293 17.4998 11.9166 17.4998Z" fill="#4D4D4D"/>
<path d="M16.25 17.4998C16.5373 17.4998 16.8128 17.3856 17.016 17.1825C17.2192 16.9793 17.3333 16.7037 17.3333 16.4164V12.0831C17.3333 11.7958 17.2192 11.5202 17.016 11.3171C16.8128 11.1139 16.5373 10.9998 16.25 10.9998C15.9626 10.9998 15.6871 11.1139 15.4839 11.3171C15.2808 11.5202 15.1666 11.7958 15.1666 12.0831V16.4164C15.1666 16.7037 15.2808 16.9793 15.4839 17.1825C15.6871 17.3856 15.9626 17.4998 16.25 17.4998Z" fill="#4D4D4D"/>
</svg>
