<svg width="24" height="21" viewBox="0 0 24 21" fill="none" xmlns="http://www.w3.org/2000/svg">
<path d="M13.6419 2.76934L13.6414 2.76982L12.718 3.72136L12.0003 4.46085L11.2827 3.72136L10.3593 2.76981L10.3581 2.76863C8.32847 0.670218 5.09986 0.389636 2.97897 2.19691L13.6419 2.76934ZM13.6419 2.76934C15.6767 0.669784 18.9008 0.390009 21.0213 2.19653L13.6419 2.76934ZM21.0219 2.19702C23.5197 4.32955 23.6547 8.17042 21.4117 10.4851L21.4115 10.4853L12.3415 19.8506C12.3415 19.8507 12.3414 19.8507 12.3414 19.8508C12.1484 20.0497 11.8476 20.0497 11.6546 19.8508C11.6546 19.8507 11.6545 19.8507 11.6545 19.8506L2.58493 10.4858L21.0219 2.19702ZM2.58451 10.4853C0.345859 8.17052 0.481003 4.3295 2.97883 2.19702L2.58451 10.4853Z" stroke="#4D4D4D" stroke-width="2"/>
</svg>
